<svg id="SYMC_Yellow_FFC200" data-name="SYMC Yellow #FFC200" xmlns="http://www.w3.org/2000/svg" viewBox="0 0 142 136"><defs><style>.cls-1{fill:#fcc117;}</style></defs><title>img_vpp_seal_yellow_142x164</title><path class="cls-1" d="M.06,69.66H2.65l2.11,8.52,2.36-8.52H9.44L6.05,81H3.31Z"/><path class="cls-1" d="M11,69.66h2.46V81H11Z"/><path class="cls-1" d="M24.45,81H21.8l-2-4.55H18.27V81H15.84V69.66H20c2.38,0,4.2.89,4.2,3.47a3,3,0,0,1-2,2.94Zm-4.52-6.42c1.23,0,1.76-.48,1.76-1.48s-.5-1.47-1.59-1.47H18.27v3Z"/><path class="cls-1" d="M26.05,76.73V69.66H28.5V77c0,1.27.33,2.13,1.67,2.13s1.66-.86,1.66-2.13V69.66H34.3v7.07c0,2.87-1.29,4.43-4.14,4.43S26.05,79.6,26.05,76.73Z"/><path class="cls-1" d="M35.83,79.92l1.08-1.77A5.59,5.59,0,0,0,40,79.1c1.11,0,1.8-.46,1.8-1.26,0-1-.93-1.15-2.72-1.77-1.36-.49-2.76-1.25-2.76-3.37s1.61-3.23,3.87-3.23a6.83,6.83,0,0,1,3.4.78l-.82,1.85a6.05,6.05,0,0,0-2.5-.58c-1.11,0-1.68.39-1.68,1.1,0,.95.82,1.11,2.21,1.53,1.57.48,3.37,1.24,3.37,3.66,0,2-1.4,3.35-4.13,3.35A7.11,7.11,0,0,1,35.83,79.92Z"/><path class="cls-1" d="M49.83,69.66h3.74c2.35,0,4.3.92,4.3,3.55s-1.85,3.44-4,3.44H52.26V81H49.83Zm3.7,5.08c1.26,0,1.86-.46,1.86-1.56s-.57-1.55-1.69-1.55H52.26v3.11Z"/><path class="cls-1" d="M68.21,81H65.56l-2.05-4.55H62V81H59.6V69.66h4.12c2.39,0,4.21.89,4.21,3.47a3,3,0,0,1-2,2.94Zm-4.52-6.42c1.23,0,1.76-.48,1.76-1.48s-.5-1.47-1.6-1.47H62v3Z"/><path class="cls-1" d="M69.56,75.42c0-3.26,1.58-6,4.68-6s4.67,2.44,4.67,5.74c0,3.48-1.64,6-4.67,6S69.56,78.87,69.56,75.42Zm6.77-.14c0-2.73-.77-3.78-2.08-3.78s-2.13,1.1-2.13,3.87.76,3.76,2.08,3.76S76.33,78.06,76.33,75.28Z"/><path class="cls-1" d="M82.56,71.65H79.7v-2h8.14v2H85V81H82.56Z"/><path class="cls-1" d="M89.39,69.66h7v2H91.83v2.51h3.66V76.1H91.83V79h4.85v2H89.39Z"/><path class="cls-1" d="M97.94,75.37c0-3.13,1.53-5.9,5-5.9a4.23,4.23,0,0,1,3.34,1.29l-1.35,1.66a2.57,2.57,0,0,0-1.94-.8c-1.64,0-2.4,1.24-2.4,3.95,0,2.4.85,3.43,2.42,3.43a3.16,3.16,0,0,0,2.13-1l1.37,1.65A4.36,4.36,0,0,1,103,81.16C99.29,81.16,97.94,78.45,97.94,75.37Z"/><path class="cls-1" d="M110.29,71.65h-2.86v-2h8.14v2h-2.83V81h-2.45Z"/><path class="cls-1" d="M117.24,69.66h2.45V81h-2.45Z"/><path class="cls-1" d="M121.77,75.42c0-3.26,1.58-6,4.67-6s4.68,2.44,4.68,5.74c0,3.48-1.65,6-4.68,6S121.77,78.87,121.77,75.42Zm6.77-.14c0-2.73-.78-3.78-2.08-3.78s-2.13,1.1-2.13,3.87.76,3.76,2.08,3.76S128.54,78.06,128.54,75.28Z"/><path class="cls-1" d="M133.08,69.66h2.76l3.81,7.5c0-.53-.1-2.17-.1-2.72V69.66h2.26V81h-2.39l-4.18-8.22c0,.67.1,2.17.1,2.72V81h-2.26Z"/><path class="cls-1" d="M31.24,84.3h4.55c2.86,0,5.23,1.12,5.23,4.31s-2.25,4.17-4.9,4.17H34.2v5.3h-3Zm4.51,6.17c1.53,0,2.26-.57,2.26-1.9s-.69-1.88-2.06-1.88H34.2v3.78Z"/><path class="cls-1" d="M53.59,98.08H50.38l-2.49-5.53H46.08v5.53h-3V84.3h5c2.9,0,5.12,1.08,5.12,4.21a3.7,3.7,0,0,1-2.45,3.57Zm-5.49-7.8c1.49,0,2.14-.59,2.14-1.81s-.61-1.78-1.94-1.78H46.08v3.59Z"/><path class="cls-1" d="M55.24,91.3c0-4,1.92-7.24,5.68-7.24s5.69,3,5.69,7c0,4.23-2,7.23-5.69,7.23S55.24,95.49,55.24,91.3Zm8.23-.18c0-3.31-.94-4.59-2.53-4.59s-2.59,1.34-2.59,4.71.93,4.56,2.53,4.56S63.47,94.51,63.47,91.12Z"/><path class="cls-1" d="M69,84.3h4.39l1.94,7.25c.27,1,.61,2.72.7,3.39.1-.67.4-2.37.65-3.37L78.5,84.3h4.39V98.08H80V90.81c0-1.14.08-3.63.08-3.63s-.61,2.43-.88,3.45l-2.06,7.45H74.58l-2-7.45c-.24-.88-.87-3.45-.87-3.45s.08,2.63.08,3.63v7.27H69Z"/><path class="cls-1" d="M85.86,84.3h3V98.08h-3Z"/><path class="cls-1" d="M91,96.76l1.32-2.15A6.81,6.81,0,0,0,96,95.76c1.35,0,2.19-.54,2.19-1.52,0-1.18-1.13-1.4-3.31-2.16-1.64-.59-3.35-1.51-3.35-4.1s2-3.92,4.71-3.92a8.51,8.51,0,0,1,4.13.94l-1,2.26a7.32,7.32,0,0,0-3-.71c-1.35,0-2,.47-2,1.33,0,1.16,1,1.36,2.69,1.87,1.9.58,4.1,1.51,4.1,4.45,0,2.37-1.71,4.07-5,4.07A8.63,8.63,0,0,1,91,96.76Z"/><path class="cls-1" d="M103.38,84.3h8.51v2.41h-5.55v3.06h4.45v2.35h-4.45v3.55h5.9v2.41h-8.86Z"/><polygon class="cls-1" points="123.49 87.73 123.49 98.35 70.92 128.7 18.35 98.35 18.35 87.73 12.32 87.73 12.32 101.83 70.92 135.67 129.52 101.83 129.52 87.73 123.49 87.73"/><polygon class="cls-1" points="18.35 62.48 18.35 37.65 70.92 7.3 123.49 37.65 123.49 62.48 129.52 62.48 129.52 34.17 70.92 0.33 12.32 34.17 12.32 62.48 18.35 62.48"/><path class="cls-1" d="M138.37,61.72c1.17-1.07,2.07-1.89,2.07-2.56a.57.57,0,0,0-.61-.65A1.25,1.25,0,0,0,139,59l-.71-.71a2.11,2.11,0,0,1,1.71-.79,1.57,1.57,0,0,1,1.69,1.61,4.1,4.1,0,0,1-1.41,2.35,8.12,8.12,0,0,1,.82-.06h.82v1.11h-3.57Z"/><path class="cls-1" d="M34.73,54.92h3.58V41.65L34.7,42.8l-.93-2.71,5.87-3.23H43V54.92h3.3v3.2H34.73Z"/><path class="cls-1" d="M46.75,47.24c0-6.59,3-10.69,8.08-10.69s8,3.85,8,10.6-2.52,11.28-8.08,11.28C49.7,58.43,46.75,54,46.75,47.24ZM58,47.43c0-5.5-1.18-7.15-3.17-7.15-2.15,0-3.17,1.77-3.17,7.3s1.15,7.18,3.2,7.18S58,53,58,47.43Z"/><path class="cls-1" d="M64.22,47.24c0-6.59,3-10.69,8.08-10.69s8,3.85,8,10.6S77.8,58.43,72.24,58.43C67.17,58.43,64.22,54,64.22,47.24Zm11.22.19c0-5.5-1.18-7.15-3.17-7.15-2.15,0-3.17,1.77-3.17,7.3s1.15,7.18,3.2,7.18S75.44,53,75.44,47.43Z"/><path class="cls-1" d="M82,43.08c0-3.74,2-6.53,5.56-6.53s5.56,2.7,5.56,6.37-2.36,6.62-5.56,6.62C84,49.54,82,46.71,82,43.08ZM89.27,43c0-2.76-.68-3.7-1.74-3.7s-1.68,1-1.68,3.77.59,3.69,1.65,3.69S89.27,45.94,89.27,43ZM99.4,36.86h2.8l-11,21.26h-2.8ZM97.45,52c0-3.73,2-6.53,5.56-6.53s5.56,2.7,5.56,6.37-2.36,6.62-5.56,6.62C99.47,58.43,97.45,55.6,97.45,52Zm7.27-.07c0-2.76-.68-3.7-1.74-3.7s-1.68,1-1.68,3.77.59,3.7,1.65,3.7S104.72,54.83,104.72,51.9Z"/></svg>